<svg width="48" height="48" viewBox="0 0 48 48" fill="none" xmlns="http://www.w3.org/2000/svg">
<path d="M12.037 6H7V11.037M35.963 6H41V11.037M41 34.963V40H35.963M12.037 40H7V34.963" stroke="#83868F" stroke-width="1.5" stroke-linecap="square"/>
<path fill-rule="evenodd" clip-rule="evenodd" d="M25.3335 25.334H27.3335V25.3341L29.3331 25.3341V25.334H31.3331V28.6674L34.0001 28.6674V25.334H36.0001V30.6673H34.6669V30.6674H30.6669V30.6673H29.3331V28.0008L27.3335 28.0008V36.0007H25.3335V25.334Z" fill="#4E5A6C"/>
<path fill-rule="evenodd" clip-rule="evenodd" d="M14 14H20.6667V20.6667H14V14ZM12 12H14H20.6667H22.6667V14V20.6667V22.6667H20.6667H14H12V20.6667V14V12ZM27.3334 14H34V20.6667H27.3334V14ZM25.3334 12H27.3334H34H36V14V20.6667V22.6667H34H27.3334H25.3334V20.6667V14V12ZM20.6667 27.3333H14V34H20.6667V27.3333ZM14 25.3333H12V27.3333V34V36H14H20.6667H22.6667V34V27.3333V25.3333H20.6667H14ZM18.6668 16H16.0001V18.6667H18.6668V16ZM29.3331 16H31.9998V18.6667H29.3331V16ZM18.6668 29.3333H16.0001V32H18.6668V29.3333Z" fill="url(#paint0_linear_15200_17162)"/>
<path fill-rule="evenodd" clip-rule="evenodd" d="M35.9999 33.334H33.3333V36.0007H35.9999V33.334ZM31.9997 33.334H29.333V36.0007H31.9997V33.334Z" fill="#1BE0C6"/>
<defs>
<linearGradient id="paint0_linear_15200_17162" x1="12" y1="24" x2="36" y2="24" gradientUnits="userSpaceOnUse">
<stop stop-color="#1D56F5"/>
<stop offset="1" stop-color="#00B3F5"/>
</linearGradient>
</defs>
</svg>
