<svg width="48" height="48" viewBox="0 0 48 48" fill="none" xmlns="http://www.w3.org/2000/svg">
<g clip-path="url(#clip0_15200_17186)">
<path d="M5.96026 32.4392L23.914 24.8304L42.0248 32.4392L23.914 40.4519L5.96026 32.4392Z" fill="#111214" stroke="url(#paint0_linear_15200_17186)" stroke-width="1.5"/>
<g filter="url(#filter0_b_15200_17186)">
<path d="M4 24.2539L23.9129 15.8148L44 24.2539L23.9129 33.1411L4 24.2539Z" fill="#111214"/>
<path d="M5.96026 24.2731L23.914 16.6644L42.0248 24.2731L23.914 32.2859L5.96026 24.2731Z" stroke="#83868F" stroke-width="1.5"/>
</g>
<g filter="url(#filter1_b_15200_17186)">
<path d="M4 16.0879L23.9129 7.64879L44 16.0879L23.9129 24.975L4 16.0879Z" fill="#111214"/>
<path d="M5.96026 16.1071L23.914 8.49834L42.0248 16.1071L23.914 24.1199L5.96026 16.1071Z" stroke="#1BE0C6" stroke-width="1.5"/>
</g>
</g>
<defs>
<filter id="filter0_b_15200_17186" x="0" y="11.8145" width="48" height="25.3262" filterUnits="userSpaceOnUse" color-interpolation-filters="sRGB">
<feFlood flood-opacity="0" result="BackgroundImageFix"/>
<feGaussianBlur in="BackgroundImageFix" stdDeviation="2"/>
<feComposite in2="SourceAlpha" operator="in" result="effect1_backgroundBlur_15200_17186"/>
<feBlend mode="normal" in="SourceGraphic" in2="effect1_backgroundBlur_15200_17186" result="shape"/>
</filter>
<filter id="filter1_b_15200_17186" x="0" y="3.64844" width="48" height="25.3262" filterUnits="userSpaceOnUse" color-interpolation-filters="sRGB">
<feFlood flood-opacity="0" result="BackgroundImageFix"/>
<feGaussianBlur in="BackgroundImageFix" stdDeviation="2"/>
<feComposite in2="SourceAlpha" operator="in" result="effect1_backgroundBlur_15200_17186"/>
<feBlend mode="normal" in="SourceGraphic" in2="effect1_backgroundBlur_15200_17186" result="shape"/>
</filter>
<linearGradient id="paint0_linear_15200_17186" x1="14" y1="43.7909" x2="36.5555" y2="23.9548" gradientUnits="userSpaceOnUse">
<stop stop-color="#1D56F5"/>
<stop offset="1" stop-color="#00B3F5"/>
</linearGradient>
<clipPath id="clip0_15200_17186">
<rect width="48" height="48" fill="white"/>
</clipPath>
</defs>
</svg>
